<svg version="1.1" id="Layer_1" xmlns="http://www.w3.org/2000/svg" xmlns:xlink="http://www.w3.org/1999/xlink" x="0px" y="0px"
	 viewBox="0 0 1135 190.1" style="enable-background:new 0 0 1135 190.1;" xml:space="preserve">
<style type="text/css">
	.st0{fill:#FF0000;}
</style>
<path class="st0" d="M48.8,182.2c14.8-4.1,30.3-6,45.5-7.6c8.6-0.9,17.2-1.5,25.8-2c12.4-0.8,24.7-1.4,37.1-1.9
	c23.6-0.9,47.2-1.4,70.7-1.8c47.3-0.8,94.5-1.7,141.7-4.7c48.9-3.1,97.9-5.9,146.8-9c46.4-3,92.8-5.9,139.2-8.3
	c46.5-2.4,92.9-4.6,139.4-8.2c47.5-3.6,95.1-5.9,142.7-7.8c22.6-0.9,45.2-2,67.7-4.7c11.7-1.4,23.4-3,35.1-4.7
	c11.4-1.6,23-2.7,34.5-4c10.6-1.1,21.1-0.9,31.7-0.3c7.6-0.9,13.3-4.8,17.1-11.5c2.1-4.3,4.1-8.5,6.2-12.8
	c3.7-11.2,5.5-22.8,5.2-34.7c-0.1-11.9-2.1-23.4-6.1-34.5c-2.2-4.2-4.3-8.4-6.5-12.6c-4-6.6-9.8-10.3-17.4-11.1
	c-5.8,0.5-11.7,1.2-17.5,1.7c-5.3,0.4-10.7,0.5-16,0.6c-11.4,0.2-22.8,0.8-34.1,1.4c-23.6,1.3-47.2,3.2-70.9,4.2
	c-45.8,2-91.7,2.7-137.5,6c-24.5,1.8-49,3.8-73.6,5.5c-22.3,1.6-44.6,2.7-66.9,3.8c-47.5,2.4-94.9,5.2-142.4,8.4
	c-46.8,3.1-93.7,6-140.5,9.2c-25.9,1.7-51.8,3.3-77.7,4.9c-23.2,1.4-46.5,1.8-69.7,2.4c-47.6,1.1-95.2,2.1-142.6,5.6
	c-11.7,0.9-23.4,1.9-35,3.5c-9.4,1.2-18.9,2.9-28.2,5.1c-7.2,1.6-14.1,4.1-21.1,6.5c-4.1,1.4-8,3.5-11.5,6
	C12.8,80.3,8,87.5,5.4,96.1c-6.1,16.7-6.7,36.5-3.5,53.8c1.6,10.5,5.3,20.1,11,29c2.7,2.8,5.5,5.5,8.3,8.3
	c6.3,3.9,12.5,3.9,18.7-0.3C42.7,185.1,45.7,183.5,48.8,182.2z"/>
</svg>
