<svg version="1.1" id="Layer_1" xmlns="http://www.w3.org/2000/svg" xmlns:xlink="http://www.w3.org/1999/xlink" x="0px" y="0px"
	 viewBox="0 0 701.6 561.2" style="enable-background:new 0 0 701.6 561.2;" xml:space="preserve">
<g>
	<path d="M94.7,283.7c-1.6,2.5-3.3,5.1-4.9,7.6c-9.4,14.8-18.4,29.9-28.2,44.4c-10.2,15.2-28.7,18.6-45,9.2
		c-14.3-8.2-20.9-27.6-13.5-42.8c6.2-12.6,13.7-24.5,20.9-36.5c15.9-26.6,31.3-53.6,48.3-79.5c18.4-28.1,45.3-44,79-45.5
		c20.7-0.9,41.7-1,62.1,2.1c30.3,4.6,52.7,23,68.6,48.8c21.1,34.4,41.8,69.1,62.1,103.9c14.1,24.2,2.7,48.9-24.4,53.8
		c-12.3,2.2-22.8-2-29.9-12.3c-9.4-13.8-17.9-28.1-26.8-42.2c-2.3-3.7-4.6-7.3-9.1-10.8c0,2.9,0,5.8,0,8.6c0,75.2,0,150.4,0,225.6
		c0,5.5,0,11.2-1.1,16.6c-3.3,16.6-18.8,27.3-36.7,25.8c-17.8-1.4-30.8-13.5-31-30.9c-0.6-44.2-0.4-88.4-0.5-132.5
		c0-3.7,0-7.4,0-11.5c-6.6,0-12,0-18.5,0c0,3.9,0,7.4,0,10.8c0,41.8-0.1,83.7,0,125.5c0,15.8-4.5,28.9-20.2,35.7
		c-23.8,10.3-48.4-4.2-48.8-30c-0.8-44.8-0.3-89.5-0.4-134.3c0-33.7,0-67.3,0-101c0-2.8-0.2-5.6-0.4-8.4
		C95.8,284,95.3,283.9,94.7,283.7z"/>
	<path d="M536,385.9c-6.6,0-12,0-18.5,0c0,3.9,0,7.4,0,10.8c0,41.9,0,83.7,0,125.6c0,15.8-4.5,28.9-20.2,35.6
		c-23.8,10.3-48.4-4.3-48.8-30.1c-0.7-48.6-0.3-97.2-0.4-145.7c0-29.9,0-59.7,0-89.6c0-2.8-0.3-5.5-0.5-11.1
		c-3.1,4.8-4.8,7.4-6.4,10c-9.6,15.1-18.7,30.4-28.8,45.1c-9.7,14.3-26.9,17.4-42.8,8.7c-14.4-7.9-21.9-26.8-15.8-41.4
		c2.9-7,6.9-13.5,10.8-20c19.6-32.6,38.5-65.6,59.1-97.5c18.2-28.2,45.3-44,79-45.5c20.7-0.9,41.8-1,62.1,2.1
		c30.7,4.7,53.1,23.5,69.1,49.6c20.7,34,41,68.2,61.1,102.5c14.6,25,3.8,49.4-23.9,54.5c-12.3,2.2-22.9-1.9-29.9-12.2
		c-10.2-15-19.4-30.6-29.1-46c-1.6-2.6-3.2-5.1-6.9-7c0,3.1,0,6.2,0,9.2c0,74.9,0,149.8,0,224.8c0,5.5,0,11.2-1.1,16.6
		c-3.3,16.6-18.8,27.3-36.7,25.8c-17.8-1.4-30.8-13.5-31-30.9c-0.6-44.2-0.4-88.4-0.5-132.6C536,393.6,536,389.9,536,385.9z"/>
	<path d="M123.3,51.9C122.6,22.5,146.2-0.5,175.7,0c30.3,0.5,51.6,22.8,51.6,52c0,29.3-21.6,51.5-51.7,51.9
		C145.8,104.2,122.6,81.1,123.3,51.9z"/>
	<path d="M474.7,51.1C474.4,22.4,497.5-0.4,527,0c30.6,0.4,52.2,23.1,51.7,52.7c-0.4,30.2-23.4,51.4-52.5,51.1
		C495.6,103.6,473.6,79.8,474.7,51.1z"/>
</g>
</svg>