<?xml version="1.0" encoding="UTF-8"?>
<svg id="Layer_1" data-name="Layer 1" xmlns="http://www.w3.org/2000/svg" version="1.1" viewBox="0 0 675.13 675.17">
  <defs>
    <style>
      .cls-1 {
        fill: red;
        stroke-width: 0px;
      }
    </style>
  </defs>
  <path class="cls-1" d="M210.8,577.77c0-15.84.39-31.7-.14-47.53-.36-10.6,3.21-18.84,10.34-26.57,69.24-75.04,138.29-150.25,207.33-225.47,4.02-4.38,8.18-8.85,11.15-13.93,5.35-9.15,3.68-19.43-3.27-26.15-7.57-7.31-17.59-8.38-27.09-2.38-3.83,2.42-7.23,5.59-10.63,8.63-83.02,74.06-166.12,148.02-248.83,222.42-7.79,7.01-13.42,8.08-22.75,3.18-33.01-17.32-66.61-33.52-99.84-50.44-22.12-11.26-30.89-28.95-25.54-50.82,3.32-13.58,12.62-22.25,24.38-28.96,90.16-51.46,180.27-103,270.39-154.51,103.26-59.02,206.52-118.05,309.81-177.04,25.43-14.53,49.43-9.51,63.42,13.03,6.34,10.22,6.37,21.21,4.61,32.6-16.64,108.09-33.18,216.19-49.82,324.27-11.03,71.59-21.96,143.2-33.38,214.73-5.24,32.83-30.58,47.09-61.34,34.68-48.54-19.57-96.94-39.51-145.22-59.73-7.65-3.21-12.12-2.47-17.82,3.93-25.77,28.91-52.14,57.27-78.37,85.77-20.91,22.72-51.07,23.97-67.35,1.29-5.92-8.26-8.67-19.93-9.63-30.35-1.55-16.76-.42-33.76-.42-50.66Z"/>
</svg>