<?xml version="1.0" encoding="UTF-8"?>
<svg id="Layer_1" data-name="Layer 1" xmlns="http://www.w3.org/2000/svg" version="1.1" viewBox="0 0 681.85 682.27">
  <defs>
    <style>
      .cls-1 {
        fill: red;
        stroke-width: 0px;
      }
    </style>
  </defs>
  <path class="cls-1" d="M573.66,682.24c-54.36-1.98-107.47-11.52-159.1-27.97-78.52-25.02-148.72-65.35-210.6-119.81-69.66-61.31-122.91-134.69-158.85-220.28C15.62,243.93,1.88,170.23.03,94.24-.77,61.26,14.66,40.5,46.45,31.41,80.92,21.55,115.37,11.54,150.08,2.59c26.61-6.86,56.88-1.49,70.2,33.17,15.39,40.07,33.17,79.22,49.49,118.94,12.03,29.27,5.69,52.36-19.38,72.91-17.04,13.97-34.12,27.9-51.5,41.46-5.94,4.64-6.49,8.92-3.2,15.47,43.6,86.89,107.76,153.54,194.45,198.1q16.33,8.39,27.52-5.44c12.77-15.73,25.46-31.52,38.38-47.12,19.13-23.08,42.91-29.52,70.5-18.21,41.06,16.84,81.96,34.09,122.73,51.61,26.82,11.53,38.24,38.78,29.89,69.45-9.6,35.27-19.23,70.53-28.9,105.78-7.28,26.53-28.86,43.17-56.33,43.52-6.75.09-13.51.01-20.26.01Z"/>
</svg>