<svg id="Layer_1" data-name="Layer 1" xmlns="http://www.w3.org/2000/svg" version="1.1" viewBox="0 0 896.35 767.81">
  <defs>
    <style>
      .cls-1 {
        fill: #fd0002;
        stroke-width: 0px;
      }
    </style>
  </defs>
  <path class="cls-1" d="M672.41,447.48c-6.71,0-13.42,0-20.13,0-195.42,0-390.84-.76-586.25.51-54.28.35-77.13-54.34-60.9-89.85,10.6-23.2,28.29-35.29,53.2-37.57,5.3-.48,10.67-.31,16.01-.31,193.82-.01-188.12,0,5.7,0,5.72,0,587.2,0,597.81,0-6.95-7.76-10.71-12.4-14.92-16.58-63.26-62.8-126.6-125.51-189.87-188.29-19.39-19.24-30.39-41.44-21.43-69.23,15.08-46.76,69.1-61.47,105.35-27.83,30.5,28.31,59.3,58.44,88.78,87.84,73.69,73.5,147.32,147.04,220.99,220.56,39.22,39.14,39.69,75.31.14,114.93-101.06,101.24-202.33,202.26-303.87,303.01-40.2,39.88-100.01,26.2-112.61-25.34-6.62-27.08,3.73-49.13,22.8-67.91,62.38-61.41,124.78-122.79,187.12-184.25,4.83-4.77,9.17-10.04,13.73-15.08-.54-1.53-1.09-3.06-1.63-4.59Z"/>
</svg>