<svg version="1.1" id="Layer_1" xmlns="http://www.w3.org/2000/svg" xmlns:xlink="http://www.w3.org/1999/xlink" x="0px" y="0px"
	 viewBox="0 0 2356.9 1732" style="enable-background:new 0 0 2356.9 1732;" xml:space="preserve">
<style type="text/css">
	.st0{fill:#FD0002;}
	.st1{fill:#FFFFFF;}
</style>
<g>
	<path class="st0" d="M2046.4,1193H150.9c-6.7,0-10.9-4.6-9.3-10.4L435.2,10.4c1.6-5.7,8.3-10.4,15-10.4h1897
		c6.7,0,10.9,4.6,9.3,10.4l-295.2,1172.3C2059.8,1188.3,2053.1,1193,2046.4,1193z"/>
	<path class="st1" d="M1017.1,716.8c18.8,31,36.1,59.9,53.6,88.7c15.5,25.4,31.3,50.6,46.5,76.2c4.4,7.4,9.5,10.4,18.2,10.2
		c28.5-0.5,56.9-0.3,85.4-0.2c5.6,0,11.2,0.8,18.5,1.4c-3.1,12.7-5.6,23.8-8.4,34.8c-9.1,34.8-16,70.4-28,104.2
		c-25.4,71.4-74.2,104.4-150,104.8c-51.1,0.3-102.3-0.5-153.4,0.5c-15.1,0.3-21.8-5.2-27.3-18.5c-48-116.8-96.5-233.3-144.9-349.9
		c-2-4.8-4.2-9.6-9.2-14.7c-3.5,12.8-7.2,25.6-10.4,38.6c-27.4,109.6-54.8,219.1-81.8,328.7c-2.8,11.3-7.5,15.8-19.9,15.7
		c-93-0.5-185.9-0.3-278.9-0.3c-18.5,0-19.1-0.9-14.6-19.1c45.3-180.7,90.6-361.4,135.8-542.2c43.6-174.3,87-348.6,130.2-522.9
		c2.4-9.6,6.5-13.1,16.3-13.1C726.9,40,859,38.4,991.1,40.5c75.1,1.2,148.5,14.9,216.2,50.6c102.3,53.8,148.3,143,131.2,257.3
		c-26.5,177.5-126.9,294.7-293.1,357.9C1036.8,709.6,1028.1,712.7,1017.1,716.8z M782.2,496.5c3.1,0.8,4.7,1.7,6.4,1.7
		c31.1,0,62.4,1.9,93.3-0.4c91.8-6.8,139-65.9,142.4-146.2c1.1-25-10.4-45-33-54.7c-15.9-6.9-34.1-10.4-51.5-11.5
		c-29.7-1.8-59.6,0.4-89.3-0.8c-13.4-0.5-17.4,5-20.1,16.6c-9.9,41.9-20.8,83.6-31.2,125.5C793.5,449.7,787.9,472.9,782.2,496.5z"/>
	<path class="st1" d="M1568.8,285.6c-6.9-0.3-11.7-0.8-16.4-0.8c-36-0.1-72.1,1.3-108-0.6c-21-1.1-42.6-4.8-62.4-11.7
		c-31.1-10.9-47.7-35-47.8-68.4c0-15.4,2-31.1,5.3-46.2c7.8-35.2,17.3-69.9,25.3-105c2.4-10.3,7.4-13.3,17.5-13.3
		c228.2,0.2,456.3,0.1,684.5,0.4c26.8,0,53.2,3.7,76.9,18.2c8.4,5.1,12.1,11.5,12,21.7c-0.4,49.4,0.7,98.8-0.6,148.1
		c-0.4,16.6-5.5,33.2-10.4,49.3c-1.2,3.8-10.3,7.1-15.8,7.2c-65.4,0.5-130.8,0.3-196.1,0.3c-13.3,0-26.7-0.7-40,0.4
		c-4.2,0.4-10.5,5.2-11.5,9.1c-21.8,85.3-43,170.7-64.4,256c-13.1,52.2-26.4,104.3-39.4,156.5c-29.8,119.5-59.4,239-89.2,358.4
		c-5,20.3-10.5,40.5-15.3,60.8c-1.9,7.9-6.1,11-14,11c-96.5-0.1-193-0.1-289.5,0.1c-13.8,0-10.9-7.8-8.9-16
		c20-79.8,39.9-159.6,59.8-239.4c48.2-192.8,96.4-385.6,144.5-578.3C1566.3,298.4,1567.2,293.3,1568.8,285.6z"/>
	<path class="st1" d="M1276.4,1583.6c-32.4,0-64.9-0.1-97.3,0.1c-15.6,0.1-17.5,2.4-16.9,18.1c1.5,36.2,21.9,57.4,58.2,60.1
		c34.8,2.6,68.1-3.7,100.4-16.7c18-7.2,19.8-5.8,20.1,13.3c0.2,11.6,0.8,23.2-0.3,34.6c-0.5,4.9-3.8,12.1-7.6,13.6
		c-46.7,17.7-95,27.8-144.9,20.8c-63.2-8.8-101.3-54.1-98.6-119.9c3.7-91.4,42.7-164.1,123-211.3c31.8-18.7,66.9-25.7,104.1-20.4
		c54.8,7.9,93.2,49.3,92.5,104.8c-0.3,25.4-5.9,51-12.1,75.8c-6.9,27.5-8.3,27.1-36.5,27.1
		C1332.4,1583.6,1304.4,1583.7,1276.4,1583.6C1276.4,1583.6,1276.4,1583.6,1276.4,1583.6z M1259.2,1521.2c0,0.1,0,0.3,0,0.4
		c21.8,0,43.6,0.4,65.3-0.3c4.9-0.2,12.2-2.8,14.2-6.6c14.3-26.7-3.2-64.2-32.7-71.5c-50.3-12.5-102.4,14.5-121.5,63
		c-4.6,11.5-2.9,14.6,9.3,14.8C1215.7,1521.4,1237.4,1521.2,1259.2,1521.2z"/>
	<path class="st1" d="M247.6,1269.6c40.5,0,80.9-0.1,121.4,0c17.3,0,18.1,1.3,13.8,17.4c-3.3,12.5-7.2,24.8-9.7,37.4
		c-2,10.3-7,13.6-17.4,13.6c-56.5-0.4-113,0.1-169.4-0.6c-12.7-0.1-17.6,4.1-20.3,16.6c-5.9,28.2-14,56-21.1,84
		c-3.7,14.6-2.3,16.4,12.7,16.4c44-0.2,88.1-0.5,132.1-0.6c16.6,0,17.8,1.8,13.6,18c-2.7,10.3-5.8,20.6-7.8,31
		c-2.3,12.5-8.1,17.5-21.7,17.2c-44.9-1-89.8-0.2-134.7-0.8c-11.8-0.2-15.9,4.6-18.5,15.6c-14,59.3-28.7,118.4-43.8,177.3
		c-1,4.1-7.4,9.5-11.5,9.7c-18.6,1.1-37.3,0.5-56,0.5c-11.4-0.1-10-7.1-8-14.7c14.2-56.5,28.4-113,42.5-169.5
		c20.9-83.7,42-167.3,62.3-251.1c3.2-13.4,9.1-18.1,22.7-17.9c39.6,0.7,79.2,0.3,118.7,0.3C247.6,1269.5,247.6,1269.6,247.6,1269.6z
		"/>
	<path class="st1" d="M861,1407c6.6-3.2,12.1-5.6,17.3-8.4c31.1-17,63.9-26.6,99.7-23.6c46.8,3.9,78.4,35.4,76.9,82.3
		c-0.9,28.5-7.4,57.1-13.8,85.1c-12.6,55-27.1,109.5-40.1,164.5c-2.6,11.1-7.2,16.1-18.8,15.6c-14.7-0.5-29.4-0.3-44,0.1
		c-11.7,0.4-14.8-4.1-11.9-15.4c15.3-59.4,30.1-118.9,44.9-178.5c3.3-13.4,6.4-26.9,8.3-40.5c4.7-33.4-11.2-49.7-45-47
		c-24.5,2-44.6,14.1-63.5,28.6c-22.7,17.3-39.2,37.4-45.3,67.4c-11.5,57-27.3,113.2-40.6,169.8c-2.6,11.2-7.6,15.9-19,15.4
		c-14.2-0.5-28.5,0.1-42.7-0.1c-14.6-0.2-16.3-2.4-12.7-16.9c17.4-69,35-137.8,52.4-206.8c8.5-33.6,17-67.2,24.8-101
		c2.5-11,7.8-16.1,19.1-15.8c12.9,0.4,25.8,0.2,38.7,0c11.3-0.2,18.5,3,14.8,16.4C860,1400.4,860.7,1402.6,861,1407z"/>
	<path class="st1" d="M1788.4,1729.7c-29.1,0.7-62.7-8.8-93.1-29.6c-12.8-8.7-13.6-12.4-4.5-24.4c9.4-12.4,19.1-24.5,28.2-37.2
		c5.5-7.6,10.7-8.2,17.5-2.1c35.3,31.8,76.6,31.2,119.2,21.2c12.4-2.9,22.4-10.5,27.4-23.3c6.7-17.1,3.3-29.9-13.1-38.2
		c-20.6-10.4-42.3-18.4-63.1-28.3c-21.1-10.1-40.5-22.6-50.4-45.3c-14.1-32.6-2.6-75.9,30.3-104.4c49.1-42.5,106.6-52.1,168.7-38
		c15,3.4,29.3,10.1,43.7,15.9c8.8,3.6,12,9.5,6,18.9c-7.5,11.6-14.4,23.5-20.8,35.7c-5.4,10.4-11.5,11.2-21.4,5.6
		c-31-17.9-64.6-22.7-99-13.4c-11.4,3.1-22.9,10.1-31.5,18.2c-13.3,12.5-10,29,6.6,36.9c20,9.5,41.2,16.7,61.1,26.4
		c12.7,6.2,24.7,14.1,35.8,22.8c23.2,18.1,30.8,42.8,26.3,71.3c-7.3,45.4-35.5,74.4-75.5,93.3
		C1858.1,1725.3,1827.4,1730.1,1788.4,1729.7z"/>
	<path class="st1" d="M1507.9,1732c-37.9-1.7-72.7-10.2-103.8-31.9c-12.9-9-13.5-12-4.2-24.4c9.3-12.4,19-24.7,28.1-37.2
		c5.5-7.5,10.6-7.9,17.5-1.8c34.9,30.8,75.6,31.9,118,21.6c6.6-1.6,13.1-5.7,18.5-10.1c20.7-16.8,18.9-40.8-4.8-52.9
		c-20.1-10.3-41.6-17.9-62-27.7c-30.6-14.7-56.1-34.8-55.7-72.7c0.3-30.2,12.5-56.4,35.8-76.2c57.4-48.8,122.5-55.2,191.5-31
		c34.7,12.2,34.3,13.9,16.2,45.1c-5.3,9.1-9.7,22.5-17.7,25.4c-7.4,2.6-18.8-6.3-28.5-9.9c-28.7-10.5-58.1-14.5-87.5-4.7
		c-10.5,3.5-20.8,10.3-28.6,18.2c-12.7,12.8-9.5,27.8,6.6,35.9c13.1,6.6,27.1,11.3,40.3,17.6c15.2,7.2,30.9,14,44.9,23.2
		c39.3,25.9,49.9,62,31.6,105.5c-17.2,40.8-50.1,64-91,75.9C1552,1725.9,1529.7,1728,1507.9,1732z"/>
	<path class="st1" d="M656.4,1459.1c-11.1,0-22.4-1-33.3,0.5c-4.7,0.6-11.5,5.5-12.6,9.7c-12.1,46.4-23.4,93.1-34.3,139.8
		c-2.4,10.3-3.1,21.1-3,31.7c0.1,12.4,7.4,19.5,19.9,20.9c20.5,2.2,39.6-2.2,58.1-11.3c18.1-8.9,19.8-7.5,21.2,12.6
		c0.8,10.6,2.3,21.3,2,31.9c-0.1,4.5-3,11.3-6.5,12.9c-32.7,14.8-66.3,26.5-103.1,20.4c-40.3-6.6-66.4-37.4-65.6-79.9
		c0.4-20.2,4.4-40.6,8.9-60.5c8.5-37.2,18.8-74.1,28.1-111.2c4.1-16.1,2.8-17.5-14-17.5c-8.4,0-16.9,0-25.3,0.3
		c-8,0.2-12.1-3-10.1-11.2c3.7-15.1,6.9-30.4,12.1-45c1.5-4.3,8.8-8.5,13.9-9.3c10-1.5,20.4-1.2,30.6-0.3c11.3,0.9,17-4,20.5-14.3
		c8.6-24.8,18.1-49.2,26.7-74c3.2-9.3,8.7-13.8,18.6-13.5c10.7,0.3,21.3,0,32,0c10.3-0.1,13.2,4.7,10.5,14.5
		c-6.4,23.6-12.5,47.3-18.5,71c-3.6,14.4-1.9,16.4,13,16.4c18.7,0,37.4-0.6,56-0.5c14.3,0.1,16.5,3.1,13.2,17
		c-3,12.5-6.6,24.9-9.6,37.4c-2.1,8.8-7.2,12.5-16.2,12.3c-11.1-0.3-22.2-0.1-33.3-0.1C656.4,1459.5,656.4,1459.3,656.4,1459.1z"/>
	<path class="st1" d="M343.5,1722.5c-7.6,0-15.1-0.3-22.7,0c-11.3,0.5-13.9-4.8-11.3-15c9.9-37.8,19.6-75.6,29.2-113.5
		c16.4-65,32.8-130,48.6-195.2c2.9-12.1,8.4-17.5,20.8-17.1c13.7,0.5,27.5,0.2,41.3,0.1c10.9,0,14.9,3.9,11.9,15.6
		c-13.7,52.9-26.7,105.9-39.8,158.9c-11.8,47.4-23.5,94.8-34.9,142.3c-5.7,23.7-5.4,23.8-29.7,23.8
		C352.4,1722.5,348,1722.5,343.5,1722.5z"/>
	<path class="st1" d="M440.3,1342.6c-22-0.2-38.8-17-38.7-38.8c0.1-28.1,28.8-55.1,58.1-54.6c21.6,0.3,38.6,17.6,38.6,39.1
		C498.2,1317.1,470.7,1342.9,440.3,1342.6z"/>
</g>
</svg>
