<?xml version="1.0" encoding="utf-8"?>
<!-- Generator: Adobe Illustrator 28.2.0, SVG Export Plug-In . SVG Version: 6.00 Build 0)  -->
<svg version="1.1" id="Layer_1" xmlns="http://www.w3.org/2000/svg" xmlns:xlink="http://www.w3.org/1999/xlink" x="0px" y="0px"
	 viewBox="0 0 416.6 306.1" style="enable-background:new 0 0 416.6 306.1;" xml:space="preserve">
<style type="text/css">
	.st0{fill:#FD0002;}
	.st1{fill:#FFFFFF;}
</style>
<g>
	<path class="st0" d="M361.7,210.9h-335c-1.2,0-1.9-0.8-1.6-1.8L76.9,1.8c0.3-1,1.5-1.8,2.7-1.8h335.3c1.2,0,1.9,0.8,1.6,1.8
		L364.4,209C364.1,210,362.9,210.9,361.7,210.9z"/>
	<path class="st1" d="M179.8,126.7c3.3,5.5,6.4,10.6,9.5,15.7c2.7,4.5,5.5,8.9,8.2,13.5c0.8,1.3,1.7,1.8,3.2,1.8
		c5-0.1,10.1-0.1,15.1,0c1,0,2,0.1,3.3,0.2c-0.5,2.2-1,4.2-1.5,6.2c-1.6,6.2-2.8,12.4-5,18.4c-4.5,12.6-13.1,18.4-26.5,18.5
		c-9,0.1-18.1-0.1-27.1,0.1c-2.7,0.1-3.9-0.9-4.8-3.3c-8.5-20.6-17.1-41.2-25.6-61.8c-0.4-0.9-0.7-1.7-1.6-2.6
		c-0.6,2.3-1.3,4.5-1.8,6.8c-4.8,19.4-9.7,38.7-14.5,58.1c-0.5,2-1.3,2.8-3.5,2.8c-16.4-0.1-32.9,0-49.3-0.1c-3.3,0-3.4-0.2-2.6-3.4
		c8-31.9,16-63.9,24-95.8c7.7-30.8,15.4-61.6,23-92.4c0.4-1.7,1.1-2.3,2.9-2.3c23.3,0,46.7-0.2,70,0.1c13.3,0.2,26.2,2.6,38.2,8.9
		c18.1,9.5,26.2,25.3,23.2,45.5c-4.7,31.4-22.4,52.1-51.8,63.3C183.2,125.4,181.7,126,179.8,126.7z M138.3,87.8
		c0.5,0.1,0.8,0.3,1.1,0.3c5.5,0,11,0.3,16.5-0.1c16.2-1.2,24.6-11.7,25.2-25.8c0.2-4.4-1.8-7.9-5.8-9.7c-2.8-1.2-6-1.8-9.1-2
		c-5.2-0.3-10.5,0.1-15.8-0.1c-2.4-0.1-3.1,0.9-3.6,2.9c-1.8,7.4-3.7,14.8-5.5,22.2C140.2,79.5,139.3,83.6,138.3,87.8z"/>
	<path class="st1" d="M277.3,50.5c-1.2-0.1-2.1-0.1-2.9-0.1c-6.4,0-12.7,0.2-19.1-0.1c-3.7-0.2-7.5-0.8-11-2.1
		c-5.5-1.9-8.4-6.2-8.5-12.1c0-2.7,0.3-5.5,0.9-8.2c1.4-6.2,3-12.4,4.5-18.6c0.4-1.8,1.3-2.4,3.1-2.4c40.3,0,80.7,0,121,0.1
		c4.7,0,9.4,0.7,13.6,3.2c1.5,0.9,2.1,2,2.1,3.8c-0.1,8.7,0.1,17.5-0.1,26.2c-0.1,2.9-1,5.9-1.8,8.7c-0.2,0.7-1.8,1.3-2.8,1.3
		c-11.6,0.1-23.1,0.1-34.7,0.1c-2.4,0-4.7-0.1-7.1,0.1c-0.7,0.1-1.9,0.9-2,1.6c-3.9,15.1-7.6,30.2-11.4,45.3
		c-2.3,9.2-4.7,18.4-7,27.7c-5.3,21.1-10.5,42.2-15.8,63.4c-0.9,3.6-1.9,7.2-2.7,10.7c-0.3,1.4-1.1,1.9-2.5,1.9
		c-17.1,0-34.1,0-51.2,0c-2.4,0-1.9-1.4-1.6-2.8c3.5-14.1,7.1-28.2,10.6-42.3c8.5-34.1,17-68.1,25.5-102.2
		C276.8,52.7,277,51.8,277.3,50.5z"/>
	<path d="M225.6,279.9c-5.7,0-11.5,0-17.2,0c-2.8,0-3.1,0.4-3,3.2c0.3,6.4,3.9,10.2,10.3,10.6c6.1,0.5,12-0.7,17.7-2.9
		c3.2-1.3,3.5-1,3.6,2.4c0,2,0.1,4.1,0,6.1c-0.1,0.9-0.7,2.1-1.3,2.4c-8.3,3.1-16.8,4.9-25.6,3.7c-11.2-1.6-17.9-9.6-17.4-21.2
		c0.6-16.2,7.5-29,21.7-37.3c5.6-3.3,11.8-4.5,18.4-3.6c9.7,1.4,16.5,8.7,16.3,18.5c-0.1,4.5-1,9-2.1,13.4c-1.2,4.9-1.5,4.8-6.5,4.8
		C235.5,279.9,230.6,279.9,225.6,279.9C225.6,279.9,225.6,279.9,225.6,279.9z M222.6,268.9C222.6,268.9,222.6,268.9,222.6,268.9
		c3.8,0.1,7.7,0.1,11.5,0c0.9,0,2.2-0.5,2.5-1.2c2.5-4.7-0.6-11.3-5.8-12.6c-8.9-2.2-18.1,2.6-21.5,11.1c-0.8,2-0.5,2.6,1.7,2.6
		C214.9,268.9,218.7,268.9,222.6,268.9z"/>
	<path d="M43.8,224.4c7.2,0,14.3,0,21.5,0c3.1,0,3.2,0.2,2.4,3.1c-0.6,2.2-1.3,4.4-1.7,6.6c-0.4,1.8-1.2,2.4-3.1,2.4
		c-10-0.1-20,0-29.9-0.1c-2.3,0-3.1,0.7-3.6,2.9c-1,5-2.5,9.9-3.7,14.9c-0.7,2.6-0.4,2.9,2.2,2.9c7.8,0,15.6-0.1,23.3-0.1
		c2.9,0,3.1,0.3,2.4,3.2c-0.5,1.8-1,3.6-1.4,5.5c-0.4,2.2-1.4,3.1-3.8,3c-7.9-0.2-15.9,0-23.8-0.1c-2.1,0-2.8,0.8-3.3,2.8
		c-2.5,10.5-5.1,20.9-7.7,31.3c-0.2,0.7-1.3,1.7-2,1.7c-3.3,0.2-6.6,0.1-9.9,0.1c-2,0-1.8-1.3-1.4-2.6c2.5-10,5-20,7.5-30
		c3.7-14.8,7.4-29.6,11-44.4c0.6-2.4,1.6-3.2,4-3.2C29.8,224.5,36.8,224.4,43.8,224.4C43.8,224.4,43.8,224.4,43.8,224.4z"/>
	<path d="M152.2,248.7c1.2-0.6,2.1-1,3.1-1.5c5.5-3,11.3-4.7,17.6-4.2c8.3,0.7,13.9,6.2,13.6,14.6c-0.2,5-1.3,10.1-2.4,15
		c-2.2,9.7-4.8,19.4-7.1,29.1c-0.5,2-1.3,2.8-3.3,2.8c-2.6-0.1-5.2-0.1-7.8,0c-2.1,0.1-2.6-0.7-2.1-2.7c2.7-10.5,5.3-21,7.9-31.5
		c0.6-2.4,1.1-4.7,1.5-7.2c0.8-5.9-2-8.8-7.9-8.3c-4.3,0.4-7.9,2.5-11.2,5.1c-4,3.1-6.9,6.6-8,11.9c-2,10.1-4.8,20-7.2,30
		c-0.5,2-1.3,2.8-3.4,2.7c-2.5-0.1-5,0-7.5,0c-2.6,0-2.9-0.4-2.2-3c3.1-12.2,6.2-24.4,9.3-36.6c1.5-5.9,3-11.9,4.4-17.9
		c0.4-1.9,1.4-2.8,3.4-2.8c2.3,0.1,4.6,0,6.8,0c2,0,3.3,0.5,2.6,2.9C152,247.5,152.1,247.9,152.2,248.7z"/>
	<path d="M316.1,305.7c-5.1,0.1-11.1-1.6-16.5-5.2c-2.3-1.5-2.4-2.2-0.8-4.3c1.7-2.2,3.4-4.3,5-6.6c1-1.3,1.9-1.5,3.1-0.4
		c6.2,5.6,13.5,5.5,21.1,3.7c2.2-0.5,4-1.9,4.8-4.1c1.2-3,0.6-5.3-2.3-6.8c-3.6-1.8-7.5-3.3-11.2-5c-3.7-1.8-7.2-4-8.9-8
		c-2.5-5.8-0.5-13.4,5.4-18.4c8.7-7.5,18.8-9.2,29.8-6.7c2.7,0.6,5.2,1.8,7.7,2.8c1.6,0.6,2.1,1.7,1.1,3.3c-1.3,2-2.6,4.2-3.7,6.3
		c-1,1.8-2,2-3.8,1c-5.5-3.2-11.4-4-17.5-2.4c-2,0.5-4,1.8-5.6,3.2c-2.4,2.2-1.8,5.1,1.2,6.5c3.5,1.7,7.3,3,10.8,4.7
		c2.2,1.1,4.4,2.5,6.3,4c4.1,3.2,5.4,7.6,4.6,12.6c-1.3,8-6.3,13.2-13.3,16.5C328.4,304.9,323,305.8,316.1,305.7z"/>
	<path d="M266.5,306.1c-6.7-0.3-12.9-1.8-18.3-5.6c-2.3-1.6-2.4-2.1-0.8-4.3c1.7-2.2,3.4-4.4,5-6.6c1-1.3,1.9-1.4,3.1-0.3
		c6.2,5.4,13.4,5.6,20.9,3.8c1.2-0.3,2.3-1,3.3-1.8c3.7-3,3.3-7.2-0.8-9.4c-3.6-1.8-7.4-3.2-11-4.9c-5.4-2.6-9.9-6.2-9.8-12.8
		c0.1-5.3,2.2-10,6.3-13.5c10.2-8.6,21.7-9.8,33.8-5.5c6.1,2.2,6.1,2.4,2.9,8c-0.9,1.6-1.7,4-3.1,4.5c-1.3,0.5-3.3-1.1-5-1.7
		c-5.1-1.8-10.3-2.6-15.5-0.8c-1.8,0.6-3.7,1.8-5.1,3.2c-2.3,2.3-1.7,4.9,1.2,6.3c2.3,1.2,4.8,2,7.1,3.1c2.7,1.3,5.5,2.5,7.9,4.1
		c7,4.6,8.8,11,5.6,18.6c-3,7.2-8.9,11.3-16.1,13.4C274.3,305.1,270.4,305.4,266.5,306.1z"/>
	<path d="M116,257.9c-2,0-4-0.2-5.9,0.1c-0.8,0.1-2,1-2.2,1.7c-2.1,8.2-4.1,16.5-6.1,24.7c-0.4,1.8-0.5,3.7-0.5,5.6
		c0,2.2,1.3,3.5,3.5,3.7c3.6,0.4,7-0.4,10.3-2c3.2-1.6,3.5-1.3,3.8,2.2c0.1,1.9,0.4,3.8,0.3,5.6c0,0.8-0.5,2-1.1,2.3
		c-5.8,2.6-11.7,4.7-18.2,3.6c-7.1-1.2-11.7-6.6-11.6-14.1c0.1-3.6,0.8-7.2,1.6-10.7c1.5-6.6,3.3-13.1,5-19.6
		c0.7-2.8,0.5-3.1-2.5-3.1c-1.5,0-3,0-4.5,0c-1.4,0-2.1-0.5-1.8-2c0.7-2.7,1.2-5.4,2.1-8c0.3-0.8,1.6-1.5,2.5-1.6
		c1.8-0.3,3.6-0.2,5.4-0.1c2,0.2,3-0.7,3.6-2.5c1.5-4.4,3.2-8.7,4.7-13.1c0.6-1.6,1.5-2.4,3.3-2.4c1.9,0.1,3.8,0,5.7,0
		c1.8,0,2.3,0.8,1.9,2.6c-1.1,4.2-2.2,8.4-3.3,12.5c-0.6,2.5-0.3,2.9,2.3,2.9c3.3,0,6.6-0.1,9.9-0.1c2.5,0,2.9,0.5,2.3,3
		c-0.5,2.2-1.2,4.4-1.7,6.6c-0.4,1.6-1.3,2.2-2.9,2.2c-2-0.1-3.9,0-5.9,0C116,258,116,257.9,116,257.9z"/>
	<path d="M60.7,304.4c-1.3,0-2.7,0-4,0c-2,0.1-2.5-0.9-2-2.6c1.7-6.7,3.5-13.4,5.2-20.1c2.9-11.5,5.8-23,8.6-34.5
		c0.5-2.1,1.5-3.1,3.7-3c2.4,0.1,4.9,0,7.3,0c1.9,0,2.6,0.7,2.1,2.8c-2.4,9.3-4.7,18.7-7,28.1c-2.1,8.4-4.2,16.8-6.2,25.1
		c-1,4.2-1,4.2-5.2,4.2C62.3,304.4,61.5,304.4,60.7,304.4z"/>
	<path class="st1" d="M77.8,237.3c-3.9,0-6.9-3-6.8-6.9c0-5,5.1-9.7,10.3-9.7c3.8,0.1,6.8,3.1,6.8,6.9
		C88.1,232.8,83.2,237.4,77.8,237.3z"/>
</g>
<g>
</g>
<g>
</g>
<g>
</g>
<g>
</g>
<g>
</g>
<g>
</g>
<g>
</g>
<g>
</g>
<g>
</g>
<g>
</g>
<g>
</g>
<g>
</g>
<g>
</g>
<g>
</g>
<g>
</g>
</svg>
